<svg width="50" height="50" viewBox="0 0 50 50" fill="none" xmlns="http://www.w3.org/2000/svg">
<circle cx="25" cy="25" r="25" fill="#EEEEEE"/>
<path d="M25.0007 25.292C24.1354 25.292 23.2895 25.0354 22.57 24.5547C21.8506 24.0739 21.2898 23.3907 20.9587 22.5912C20.6275 21.7918 20.5409 20.9121 20.7097 20.0635C20.8785 19.2148 21.2952 18.4353 21.9071 17.8234C22.5189 17.2115 23.2985 16.7949 24.1471 16.6261C24.9958 16.4572 25.8755 16.5439 26.6749 16.875C27.4743 17.2062 28.1576 17.7669 28.6383 18.4864C29.1191 19.2058 29.3757 20.0517 29.3757 20.917C29.3757 22.0773 28.9147 23.1901 28.0942 24.0106C27.2738 24.8311 26.161 25.292 25.0007 25.292ZM25.0007 18.292C24.4815 18.292 23.974 18.4459 23.5423 18.7344C23.1106 19.0228 22.7741 19.4328 22.5755 19.9124C22.3768 20.3921 22.3248 20.9199 22.4261 21.4291C22.5274 21.9383 22.7774 22.406 23.1445 22.7731C23.5116 23.1403 23.9793 23.3903 24.4885 23.4916C24.9977 23.5928 25.5255 23.5409 26.0052 23.3422C26.4849 23.1435 26.8948 22.807 27.1833 22.3754C27.4717 21.9437 27.6257 21.4362 27.6257 20.917C27.6257 20.2208 27.3491 19.5531 26.8568 19.0608C26.3645 18.5686 25.6968 18.292 25.0007 18.292ZM33.1673 33.4587C32.9362 33.4556 32.7154 33.3625 32.5519 33.199C32.3885 33.0356 32.2953 32.8148 32.2923 32.5837C32.2923 30.3087 31.0557 28.792 25.0007 28.792C18.9457 28.792 17.709 30.3087 17.709 32.5837C17.709 32.8157 17.6168 33.0383 17.4527 33.2024C17.2886 33.3665 17.066 33.4587 16.834 33.4587C16.6019 33.4587 16.3794 33.3665 16.2153 33.2024C16.0512 33.0383 15.959 32.8157 15.959 32.5837C15.959 27.042 22.294 27.042 25.0007 27.042C27.7073 27.042 34.0423 27.042 34.0423 32.5837C34.0393 32.8148 33.9461 33.0356 33.7827 33.199C33.6193 33.3625 33.3984 33.4556 33.1673 33.4587Z" fill="black"/>
</svg>
