<svg width="597" height="952" viewBox="0 0 597 952" fill="none" xmlns="http://www.w3.org/2000/svg">
<g clip-path="url(#clip0_4_1936)">
<rect width="149.161" height="158.75" fill="#328A28"/>
<circle cx="27.7019" cy="133.18" r="123.591" fill="#F2C94C"/>
</g>
<g clip-path="url(#clip1_4_1936)">
<rect x="149.16" width="149.161" height="158.75" fill="white"/>
<circle cx="270.62" cy="133.18" r="123.591" fill="#F2994A"/>
</g>
<g clip-path="url(#clip2_4_1936)">
<rect x="298.322" width="149.161" height="158.75" fill="#F2C94C"/>
<ellipse cx="277.948" cy="8.26966" rx="166.278" ry="151.161" transform="rotate(-11.0849 277.948 8.26966)" fill="#0E280B"/>
</g>
<g clip-path="url(#clip3_4_1936)">
<rect x="447.482" width="149.161" height="158.75" fill="#F2994A"/>
<ellipse cx="591.305" cy="18.2185" rx="141.604" ry="134.291" transform="rotate(46.0164 591.305 18.2185)" fill="#328A28"/>
</g>
<g clip-path="url(#clip4_4_1936)">
<rect y="318" width="149.161" height="158.75" fill="#B6E8B0"/>
<rect x="-131.842" y="449.43" width="146.394" height="247.048" transform="rotate(-53.4235 -131.842 449.43)" fill="#328A28"/>
</g>
<g clip-path="url(#clip5_4_1936)">
<rect x="149.16" y="318" width="149.161" height="158.75" fill="white"/>
<circle cx="223.741" cy="402.17" r="74.5805" fill="#B6E8B0"/>
</g>
<g clip-path="url(#clip6_4_1936)">
<rect x="298.322" y="318" width="149.161" height="158.75" fill="#328A28"/>
<circle cx="249.844" cy="406.965" r="100.684" fill="#F2C94C"/>
</g>
<g clip-path="url(#clip7_4_1936)">
<rect x="447.482" y="318" width="149.161" height="158.75" fill="#F2994A"/>
<ellipse cx="585.979" cy="336.218" rx="141.604" ry="134.291" transform="rotate(46.0164 585.979 336.218)" fill="#F2C94C"/>
</g>
<g clip-path="url(#clip8_4_1936)">
<rect y="476" width="149.161" height="158.75" fill="#B6E8B0"/>
<circle cx="40.4865" cy="521.817" r="34.094" fill="#399F2D"/>
<circle cx="41.6611" cy="522.995" r="9.40523" fill="white"/>
<circle cx="40.4865" cy="590.004" r="34.094" fill="#45C736"/>
<circle cx="41.6611" cy="591.183" r="9.40523" fill="white"/>
<circle cx="108.674" cy="521.817" r="34.094" fill="#1F7216"/>
<circle cx="109.849" cy="522.995" r="9.40523" fill="white"/>
<circle cx="108.674" cy="590.004" r="34.094" fill="#399F2D"/>
<circle cx="109.849" cy="591.183" r="9.40523" fill="white"/>
</g>
<g clip-path="url(#clip9_4_1936)">
<rect x="149.16" y="476" width="149.161" height="158.75" fill="#328A28"/>
<circle cx="176.862" cy="609.18" r="123.591" fill="#F2C94C"/>
</g>
<g clip-path="url(#clip10_4_1936)">
<rect x="298.322" y="476" width="149.161" height="158.75" fill="white"/>
<circle cx="419.782" cy="609.18" r="123.591" fill="#F2994A"/>
</g>
<g clip-path="url(#clip11_4_1936)">
<rect x="447.482" y="476" width="149.161" height="158.75" fill="#F2C94C"/>
<ellipse cx="427.11" cy="484.27" rx="166.278" ry="151.161" transform="rotate(-11.0849 427.11 484.27)" fill="#0E280B"/>
</g>
<g clip-path="url(#clip12_4_1936)">
<rect x="0.482422" y="634" width="149.161" height="158.75" fill="#F2994A"/>
<ellipse cx="138.979" cy="652.218" rx="141.604" ry="134.291" transform="rotate(46.0164 138.979 652.218)" fill="#F2C94C"/>
</g>
<g clip-path="url(#clip13_4_1936)">
<rect x="149" y="634" width="149.161" height="158.75" fill="white"/>
<rect x="147" y="712" width="151" height="86" fill="#328A28"/>
</g>
<g clip-path="url(#clip14_4_1936)">
<rect x="298.482" y="634" width="149.161" height="158.75" fill="#F2994A"/>
<ellipse cx="442.306" cy="652.218" rx="141.604" ry="134.291" transform="rotate(46.0164 442.306 652.218)" fill="#328A28"/>
</g>
<g clip-path="url(#clip15_4_1936)">
<rect x="447.16" y="634" width="149.161" height="158.75" fill="#F2C94C"/>
<circle cx="521.741" cy="718.17" r="74.5805" fill="#328A28"/>
</g>
<g clip-path="url(#clip16_4_1936)">
<rect x="298" y="159" width="149.161" height="158.75" fill="#B6E8B0"/>
<circle cx="338.487" cy="204.817" r="34.094" fill="#399F2D"/>
<circle cx="339.661" cy="205.995" r="9.40523" fill="white"/>
<circle cx="338.487" cy="273.004" r="34.094" fill="#45C736"/>
<circle cx="339.661" cy="274.183" r="9.40523" fill="white"/>
<circle cx="406.674" cy="204.817" r="34.094" fill="#1F7216"/>
<circle cx="407.849" cy="205.995" r="9.40523" fill="white"/>
<circle cx="406.674" cy="273.004" r="34.094" fill="#399F2D"/>
<circle cx="407.849" cy="274.183" r="9.40523" fill="white"/>
</g>
<g clip-path="url(#clip17_4_1936)">
<rect y="159" width="149.161" height="158.75" fill="#328A28"/>
<circle cx="-48.4764" cy="247.965" r="100.684" fill="#F2C94C"/>
</g>
<g clip-path="url(#clip18_4_1936)">
<rect x="447.482" y="159" width="149.161" height="158.75" fill="white"/>
<circle cx="568.942" cy="292.18" r="123.591" fill="#F2994A"/>
</g>
<g clip-path="url(#clip19_4_1936)">
<rect x="149.16" y="159" width="149.161" height="158.75" fill="#F2994A"/>
<ellipse cx="287.657" cy="177.218" rx="141.604" ry="134.291" transform="rotate(46.0164 287.657 177.218)" fill="white"/>
</g>
<g clip-path="url(#clip20_4_1936)">
<rect x="298" y="793" width="149.161" height="158.75" fill="#B6E8B0"/>
<circle cx="338.487" cy="838.817" r="34.094" fill="#399F2D"/>
<circle cx="339.661" cy="839.995" r="9.40523" fill="white"/>
<circle cx="338.487" cy="907.004" r="34.094" fill="#45C736"/>
<circle cx="339.661" cy="908.183" r="9.40523" fill="white"/>
<circle cx="406.674" cy="838.817" r="34.094" fill="#1F7216"/>
<circle cx="407.849" cy="839.995" r="9.40523" fill="white"/>
<circle cx="406.674" cy="907.004" r="34.094" fill="#399F2D"/>
<circle cx="407.849" cy="908.183" r="9.40523" fill="white"/>
</g>
<g clip-path="url(#clip21_4_1936)">
<rect y="793" width="149.161" height="158.75" fill="#328A28"/>
<circle cx="-48.4764" cy="881.965" r="100.684" fill="#F2C94C"/>
</g>
<g clip-path="url(#clip22_4_1936)">
<rect x="447.482" y="793" width="149.161" height="158.75" fill="white"/>
<circle cx="568.942" cy="926.18" r="123.591" fill="#F2994A"/>
</g>
<g clip-path="url(#clip23_4_1936)">
<rect x="149.16" y="793" width="149.161" height="158.75" fill="#F2994A"/>
<ellipse cx="287.657" cy="811.218" rx="141.604" ry="134.291" transform="rotate(46.0164 287.657 811.218)" fill="white"/>
</g>
<defs>
<clipPath id="clip0_4_1936">
<rect width="149.161" height="158.75" fill="white"/>
</clipPath>
<clipPath id="clip1_4_1936">
<rect width="149.161" height="158.75" fill="white" transform="translate(149.16)"/>
</clipPath>
<clipPath id="clip2_4_1936">
<rect width="149.161" height="158.75" fill="white" transform="translate(298.322)"/>
</clipPath>
<clipPath id="clip3_4_1936">
<rect width="149.161" height="158.75" fill="white" transform="translate(447.482)"/>
</clipPath>
<clipPath id="clip4_4_1936">
<rect width="149.161" height="158.75" fill="white" transform="translate(0 318)"/>
</clipPath>
<clipPath id="clip5_4_1936">
<rect width="149.161" height="158.75" fill="white" transform="translate(149.16 318)"/>
</clipPath>
<clipPath id="clip6_4_1936">
<rect width="149.161" height="158.75" fill="white" transform="translate(298.322 318)"/>
</clipPath>
<clipPath id="clip7_4_1936">
<rect width="149.161" height="158.75" fill="white" transform="translate(447.482 318)"/>
</clipPath>
<clipPath id="clip8_4_1936">
<rect width="149.161" height="158.75" fill="white" transform="translate(0 476)"/>
</clipPath>
<clipPath id="clip9_4_1936">
<rect width="149.161" height="158.75" fill="white" transform="translate(149.16 476)"/>
</clipPath>
<clipPath id="clip10_4_1936">
<rect width="149.161" height="158.75" fill="white" transform="translate(298.322 476)"/>
</clipPath>
<clipPath id="clip11_4_1936">
<rect width="149.161" height="158.75" fill="white" transform="translate(447.482 476)"/>
</clipPath>
<clipPath id="clip12_4_1936">
<rect width="149.161" height="158.75" fill="white" transform="translate(0.482422 634)"/>
</clipPath>
<clipPath id="clip13_4_1936">
<rect width="149.161" height="158.75" fill="white" transform="translate(149 634)"/>
</clipPath>
<clipPath id="clip14_4_1936">
<rect width="149.161" height="158.75" fill="white" transform="translate(298.482 634)"/>
</clipPath>
<clipPath id="clip15_4_1936">
<rect width="149.161" height="158.75" fill="white" transform="translate(447.16 634)"/>
</clipPath>
<clipPath id="clip16_4_1936">
<rect width="149.161" height="158.75" fill="white" transform="translate(298 159)"/>
</clipPath>
<clipPath id="clip17_4_1936">
<rect width="149.161" height="158.75" fill="white" transform="translate(0 159)"/>
</clipPath>
<clipPath id="clip18_4_1936">
<rect width="149.161" height="158.75" fill="white" transform="translate(447.482 159)"/>
</clipPath>
<clipPath id="clip19_4_1936">
<rect width="149.161" height="158.75" fill="white" transform="translate(149.16 159)"/>
</clipPath>
<clipPath id="clip20_4_1936">
<rect width="149.161" height="158.75" fill="white" transform="translate(298 793)"/>
</clipPath>
<clipPath id="clip21_4_1936">
<rect width="149.161" height="158.75" fill="white" transform="translate(0 793)"/>
</clipPath>
<clipPath id="clip22_4_1936">
<rect width="149.161" height="158.75" fill="white" transform="translate(447.482 793)"/>
</clipPath>
<clipPath id="clip23_4_1936">
<rect width="149.161" height="158.75" fill="white" transform="translate(149.16 793)"/>
</clipPath>
</defs>
</svg>
