<svg width="15" height="14" viewBox="0 0 15 14" fill="none" xmlns="http://www.w3.org/2000/svg">
<path d="M5.03216 9.91699L7.13216 7.81699L9.23216 9.91699L10.0488 9.10033L7.94883 7.00033L10.0488 4.90033L9.23216 4.08366L7.13216 6.18366L5.03216 4.08366L4.21549 4.90033L6.31549 7.00033L4.21549 9.10033L5.03216 9.91699ZM7.13216 12.8337C6.32522 12.8337 5.56688 12.6804 4.85716 12.374C4.14744 12.0675 3.53008 11.652 3.00508 11.1274C2.48008 10.6024 2.06455 9.98505 1.75849 9.27533C1.45244 8.5656 1.29922 7.80727 1.29883 7.00033C1.29883 6.19338 1.45205 5.43505 1.75849 4.72533C2.06494 4.0156 2.48047 3.39824 3.00508 2.87324C3.53008 2.34824 4.14744 1.93271 4.85716 1.62666C5.56688 1.3206 6.32522 1.16738 7.13216 1.16699C7.93911 1.16699 8.69744 1.32021 9.40716 1.62666C10.1169 1.9331 10.7342 2.34863 11.2592 2.87324C11.7842 3.39824 12.2 4.0156 12.5064 4.72533C12.8129 5.43505 12.9659 6.19338 12.9655 7.00033C12.9655 7.80727 12.8123 8.5656 12.5058 9.27533C12.1994 9.98505 11.7839 10.6024 11.2592 11.1274C10.7342 11.6524 10.1169 12.0681 9.40716 12.3746C8.69744 12.681 7.93911 12.834 7.13216 12.8337Z" fill="#FF0606"/>
</svg>
