<svg width="89" height="27" viewBox="0 0 89 27" fill="none" xmlns="http://www.w3.org/2000/svg">
<g clip-path="url(#clip0_4_2867)">
<path d="M12.0695 23.7244C11.5533 24.6592 10.2483 24.6592 9.73208 23.7244L2.61033 10.8295C2.0988 9.90334 2.74651 8.75195 3.77905 8.75195H18.0225C19.0551 8.75195 19.7028 9.90334 19.1912 10.8295L12.0695 23.7244Z" fill="#228B22"/>
<g filter="url(#filter0_f_4_2867)">
<path d="M12.1127 9.73633H3.50195V11.4035H12.1127V9.73633Z" fill="#23A323"/>
</g>
<path d="M6.7382 1.67097C7.15249 0.929993 8.18819 0.92999 8.60248 1.67096L12.9136 9.38167C13.3279 10.1227 12.8101 11.0489 11.9815 11.0489H3.35919C2.53063 11.0489 2.01277 10.1227 2.42706 9.38167L6.7382 1.67097Z" fill="#228B22"/>
<path d="M33.6022 19.5983V13.9807C33.6022 13.483 33.5235 13.0724 33.3661 12.7489C33.2087 12.4254 32.9726 12.1828 32.6577 12.021C32.3429 11.8468 31.9433 11.7598 31.459 11.7598C30.9262 11.7598 30.4357 11.8904 29.9877 12.1517C29.5518 12.4006 29.1947 12.7427 28.9161 13.1782C28.6376 13.6012 28.4681 14.0802 28.4075 14.6152L28.3894 13.5514C28.45 13.0662 28.5771 12.612 28.7708 12.189C28.9767 11.766 29.231 11.3989 29.5337 11.0879C29.8485 10.7769 30.2118 10.5342 30.6235 10.36C31.0351 10.1858 31.4832 10.0987 31.9675 10.0987C32.4761 10.0987 32.9363 10.1734 33.348 10.3227C33.7596 10.4596 34.1108 10.6773 34.4014 10.9759C34.7041 11.2621 34.9342 11.6167 35.0916 12.0397C35.249 12.4503 35.3277 12.9231 35.3277 13.4581V19.5983H33.6022ZM26.791 19.5983V6.55273H28.5165V19.5983H26.791ZM41.3652 19.7849C40.5902 19.7849 39.8818 19.5796 39.2401 19.169C38.5983 18.7584 38.0897 18.1923 37.7144 17.4707C37.339 16.7366 37.1513 15.8967 37.1513 14.9512C37.1513 14.0056 37.339 13.1719 37.7144 12.4503C38.1018 11.7162 38.6286 11.1439 39.2946 10.7333C39.9606 10.3103 40.7053 10.0987 41.5287 10.0987C42.4368 10.0987 43.1391 10.3164 43.6356 10.7519C44.1442 11.1875 44.4953 11.7722 44.6891 12.5063C44.8949 13.2404 44.9979 14.0553 44.9979 14.9512C44.9979 15.4488 44.9373 15.9776 44.8162 16.5375C44.6951 17.0974 44.5014 17.6262 44.235 18.1239C43.9686 18.6216 43.5993 19.026 43.1271 19.337C42.6548 19.6356 42.0675 19.7849 41.3652 19.7849ZM41.8556 18.2359C42.4973 18.2359 43.0362 18.0928 43.4722 17.8066C43.9201 17.508 44.2532 17.1098 44.4711 16.6122C44.6891 16.1145 44.7981 15.5608 44.7981 14.9512C44.7981 14.2917 44.683 13.7131 44.453 13.2155C44.235 12.7178 43.902 12.3321 43.454 12.0584C43.0181 11.7847 42.4853 11.6478 41.8556 11.6478C40.9111 11.6478 40.1785 11.9588 39.6579 12.5809C39.1493 13.2031 38.895 13.9931 38.895 14.9512C38.895 15.5981 39.0222 16.1705 39.2764 16.6682C39.5307 17.1534 39.8758 17.5391 40.3117 17.8253C40.7597 18.099 41.2744 18.2359 41.8556 18.2359ZM44.7981 10.2854H46.5417V19.5983H44.9434C44.9434 19.5983 44.9312 19.4863 44.9071 19.2624C44.8828 19.026 44.8586 18.746 44.8344 18.4225C44.8102 18.099 44.7981 17.8129 44.7981 17.564V10.2854ZM48.816 10.2854H50.5596V19.5983H48.816V10.2854ZM53.6292 11.8717C52.9996 11.8717 52.4607 12.021 52.0127 12.3197C51.5768 12.6183 51.2256 12.9853 50.9592 13.4208C50.7049 13.8563 50.5354 14.273 50.4507 14.6712L50.4325 13.6074C50.4446 13.483 50.4749 13.2901 50.5233 13.0289C50.5839 12.7552 50.6868 12.4503 50.8321 12.1144C50.9774 11.7784 51.1711 11.4611 51.4133 11.1625C51.6555 10.8515 51.9582 10.5964 52.3215 10.3973C52.6847 10.1983 53.1207 10.0987 53.6292 10.0987V11.8717ZM58.8523 18.1426C58.1016 18.1426 57.4114 17.987 56.7816 17.676C56.152 17.365 55.6495 16.9108 55.2741 16.3136C54.9108 15.7163 54.7292 14.9947 54.7292 14.1486C54.7292 13.3151 54.9108 12.5996 55.2741 12.0024C55.6374 11.3927 56.1278 10.9262 56.7453 10.6026C57.375 10.2667 58.0773 10.0987 58.8523 10.0987C59.0824 10.0987 59.3003 10.1174 59.5061 10.1547C59.712 10.1796 59.9118 10.2231 60.1055 10.2854H64.0651V11.9651C63.5202 11.9651 62.9693 11.8717 62.4123 11.6851C61.8674 11.4985 61.3891 11.2994 60.9774 11.0879L60.9229 10.9946C61.3346 11.2185 61.6918 11.4922 61.9945 11.8157C62.2973 12.1268 62.5273 12.4814 62.6847 12.8795C62.8543 13.2652 62.939 13.7007 62.939 14.186C62.939 15.0072 62.7574 15.7163 62.3941 16.3136C62.043 16.9108 61.5526 17.365 60.9229 17.676C60.3053 17.987 59.6151 18.1426 58.8523 18.1426ZM61.6312 23.3682V22.939C61.6312 22.3044 61.4618 21.8503 61.1227 21.5766C60.7836 21.3029 60.2872 21.166 59.6333 21.166H57.5082C57.0602 21.166 56.6787 21.1287 56.3639 21.054C56.0491 20.9794 55.7887 20.8674 55.5829 20.7181C55.3771 20.5812 55.2257 20.4071 55.1288 20.1955C55.032 19.9965 54.9835 19.7725 54.9835 19.5236C54.9835 19.0384 55.1288 18.6714 55.4194 18.4225C55.71 18.1736 56.0794 18.0182 56.5274 17.9559C56.9754 17.8813 57.4295 17.875 57.8896 17.9373L58.8523 18.1426C58.1621 18.1799 57.6353 18.2483 57.2721 18.3479C56.9088 18.4474 56.7272 18.6589 56.7272 18.9824C56.7272 19.169 56.7998 19.3183 56.9451 19.4303C57.0904 19.5423 57.2963 19.5983 57.5627 19.5983H59.7786C60.4688 19.5983 61.0803 19.6854 61.6131 19.8596C62.158 20.0462 62.5818 20.3511 62.8845 20.7741C63.1994 21.2096 63.3567 21.8005 63.3567 22.5471V23.3682H61.6312ZM58.8523 16.6308C59.2882 16.6308 59.6818 16.5375 60.0329 16.3509C60.3961 16.1519 60.6867 15.8719 60.9047 15.5111C61.1227 15.1378 61.2316 14.6899 61.2316 14.1673C61.2316 13.6323 61.1227 13.1782 60.9047 12.8049C60.6989 12.4192 60.4143 12.133 60.051 11.9464C59.6878 11.7473 59.2882 11.6478 58.8523 11.6478C58.4163 11.6478 58.0108 11.7473 57.6353 11.9464C57.2721 12.133 56.9814 12.413 56.7635 12.7862C56.5455 13.1595 56.4365 13.6198 56.4365 14.1673C56.4365 14.6899 56.5455 15.1378 56.7635 15.5111C56.9814 15.8719 57.2721 16.1519 57.6353 16.3509C57.9986 16.5375 58.4043 16.6308 58.8523 16.6308ZM70.044 19.8036C69.16 19.8036 68.3487 19.6107 67.6101 19.225C66.8714 18.8394 66.2842 18.2856 65.8483 17.564C65.4124 16.8424 65.1944 15.9776 65.1944 14.9698C65.1944 13.9496 65.4124 13.0786 65.8483 12.357C66.2842 11.6229 66.8714 11.063 67.6101 10.6773C68.3487 10.2916 69.16 10.0987 70.044 10.0987C70.9279 10.0987 71.7332 10.2916 72.4597 10.6773C73.1862 11.063 73.7675 11.6229 74.2034 12.357C74.6393 13.0786 74.8573 13.9496 74.8573 14.9698C74.8573 15.9776 74.6393 16.8424 74.2034 17.564C73.7675 18.2856 73.1862 18.8394 72.4597 19.225C71.7332 19.6107 70.9279 19.8036 70.044 19.8036ZM70.044 18.2545C70.5889 18.2545 71.0914 18.1302 71.5516 17.8813C72.0238 17.62 72.3991 17.2467 72.6777 16.7615C72.9683 16.2638 73.1136 15.6666 73.1136 14.9698C73.1136 14.2606 72.9683 13.6571 72.6777 13.1595C72.3991 12.6618 72.0238 12.2823 71.5516 12.021C71.0914 11.7598 70.5889 11.6291 70.044 11.6291C69.4991 11.6291 68.9905 11.7598 68.5183 12.021C68.046 12.2699 67.6646 12.6432 67.374 13.1408C67.0834 13.6385 66.9381 14.2482 66.9381 14.9698C66.9381 15.6666 67.0773 16.2638 67.3558 16.7615C67.6465 17.2467 68.0279 17.62 68.5001 17.8813C68.9724 18.1302 69.4869 18.2545 70.044 18.2545ZM76.6817 10.2854H78.4253V19.5983H76.6817V10.2854ZM81.8764 10.0987C82.3849 10.0987 82.845 10.1734 83.2568 10.3227C83.6684 10.472 84.0196 10.696 84.3102 10.9946C84.6009 11.2808 84.8248 11.6415 84.9823 12.077C85.1517 12.5 85.2366 12.9853 85.2366 13.5328V19.5983H83.5111V13.9247C83.5111 13.1906 83.3354 12.6432 82.9843 12.2823C82.6452 11.9091 82.1246 11.7224 81.4223 11.7224C80.8774 11.7224 80.3809 11.8531 79.9329 12.1144C79.4848 12.3756 79.1156 12.724 78.8249 13.1595C78.5464 13.5825 78.3769 14.0616 78.3164 14.5966L78.2982 13.5701C78.3587 13.0724 78.4858 12.612 78.6796 12.189C78.8854 11.766 79.1397 11.3989 79.4425 11.0879C79.7573 10.7644 80.1205 10.5217 80.5323 10.36C80.944 10.1858 81.392 10.0987 81.8764 10.0987Z" fill="#228B22"/>
<path d="M89.0019 18.6695C89.0019 18.1541 88.5953 17.7363 88.0937 17.7363C87.5921 17.7363 87.1855 18.1541 87.1855 18.6695C87.1855 19.1849 87.5921 19.6026 88.0937 19.6026C88.5953 19.6026 89.0019 19.1849 89.0019 18.6695Z" fill="#228B22"/>
</g>
<defs>
<filter id="filter0_f_4_2867" x="-6.29621" y="-0.0618353" width="28.2077" height="21.2633" filterUnits="userSpaceOnUse" color-interpolation-filters="sRGB">
<feFlood flood-opacity="0" result="BackgroundImageFix"/>
<feBlend mode="normal" in="SourceGraphic" in2="BackgroundImageFix" result="shape"/>
<feGaussianBlur stdDeviation="4.89908" result="effect1_foregroundBlur_4_2867"/>
</filter>
<clipPath id="clip0_4_2867">
<rect width="89" height="26.1284" fill="white"/>
</clipPath>
</defs>
</svg>
